<?xml version="1.0" standalone="no"?>
<!DOCTYPE svg PUBLIC "-//W3C//DTD SVG 20010904//EN"
 "http://www.w3.org/TR/2001/REC-SVG-20010904/DTD/svg10.dtd">
<svg version="1.0" xmlns="http://www.w3.org/2000/svg"
 width="1024.000000pt" height="1024.000000pt" viewBox="0 0 1024.000000 1024.000000"
 preserveAspectRatio="xMidYMid meet">

<g transform="translate(0.000000,1024.000000) scale(0.100000,-0.100000)"
fill="#000000" stroke="none">
<path d="M0 5120 l0 -5120 5120 0 5120 0 0 5120 0 5120 -5120 0 -5120 0 0
-5120z m7042 3534 c406 -77 664 -298 786 -674 62 -190 67 -233 67 -585 0 -352
-6 -419 -61 -685 -53 -260 -119 -467 -259 -821 -293 -738 -707 -1471 -1205
-2134 -172 -229 -305 -390 -529 -640 -210 -234 -342 -389 -359 -422 -8 -14
-10 -42 -6 -75 l6 -53 -155 -154 -155 -154 -59 -4 c-32 -2 -68 -6 -80 -9 -12
-2 -108 -96 -215 -211 -106 -114 -250 -269 -321 -345 l-127 -137 -68 30 c-139
62 -457 226 -457 236 0 9 138 164 343 385 34 37 62 72 62 78 0 8 -26 9 -87 5
-178 -14 -404 26 -562 101 -306 144 -504 450 -581 899 -42 244 -38 387 24 823
25 178 37 238 52 258 11 16 62 45 129 75 60 27 111 49 112 49 2 0 3 -31 3 -69
0 -104 -4 -101 111 -101 96 0 99 -1 99 -22 0 -13 -14 -120 -31 -238 -70 -489
-42 -861 80 -1046 71 -108 153 -172 279 -217 277 -101 672 -17 1020 215 197
132 340 265 591 553 640 731 918 1130 1250 1795 319 639 516 1185 580 1605 49
321 49 572 0 773 -87 354 -267 494 -634 494 -361 0 -773 -180 -1210 -529 -132
-105 -439 -409 -554 -548 -168 -203 -372 -492 -557 -787 -99 -160 -185 -302
-220 -363 l-39 -70 -130 0 -130 0 -1 38 c-1 46 -4 49 -55 56 l-40 6 60 123
c82 165 163 305 289 497 535 817 1004 1308 1582 1655 382 229 670 334 1000
364 78 7 278 -4 362 -20z m-5577 -2730 c58 -25 105 -51 105 -58 0 -6 -34 -80
-75 -165 -41 -84 -75 -155 -75 -157 0 -2 8 -4 18 -4 12 0 37 35 80 115 l63
114 82 -34 c45 -19 84 -35 88 -35 4 0 7 24 6 53 l0 52 159 5 159 5 3 63 3 62
159 0 160 0 0 -60 0 -60 170 0 170 0 0 -140 0 -140 -170 0 -170 0 0 -50 0 -50
150 0 150 0 0 -120 0 -120 -455 0 -455 0 0 120 0 120 140 0 140 0 0 45 0 45
-155 0 -155 0 -2 53 c-1 28 -1 64 0 80 1 15 -1 27 -5 27 -6 0 -51 -97 -111
-242 -2 -4 23 -8 56 -8 49 0 62 -3 66 -17 2 -10 8 -109 12 -220 l7 -203 -71 0
c-53 0 -71 4 -76 15 -3 8 -15 15 -26 15 -20 0 -20 -5 -20 -325 l0 -325 -125 0
-125 0 0 330 0 329 -102 3 -103 3 0 115 1 115 102 3 c56 1 102 5 102 9 0 3
-44 48 -99 99 -54 52 -102 105 -105 118 -5 19 6 44 47 108 51 80 115 211 151
311 10 26 19 47 22 47 2 0 51 -21 109 -46z m2305 -24 l0 -50 308 -2 307 -3 0
-120 0 -120 -302 -3 -303 -2 0 -35 0 -35 245 0 245 0 0 -310 0 -310 -190 -2
c-117 -2 -190 -7 -191 -13 -1 -5 113 -57 252 -114 140 -58 256 -106 258 -108
4 -3 -109 -263 -114 -263 -3 0 -34 17 -317 179 -98 55 -180 101 -183 101 -3 0
-5 -67 -5 -150 l0 -150 -175 0 -175 0 0 150 c0 83 -3 150 -6 150 -5 0 -155
-83 -398 -219 -60 -34 -110 -60 -111 -59 -18 20 -124 253 -118 258 6 7 339
143 492 201 55 22 1 31 -183 31 l-186 0 0 314 0 314 248 2 247 3 3 28 3 27
-290 0 -291 0 0 125 0 125 284 0 284 0 7 55 6 55 175 0 174 0 0 -50z m5420 43
c0 -5 -149 -351 -332 -770 l-332 -763 -338 0 c-186 0 -338 3 -338 6 0 3 127
294 281 647 155 353 284 650 286 659 5 17 -19 18 -358 20 l-364 3 -3 89 c-2
49 -1 95 2 103 4 11 140 13 751 13 410 0 745 -3 745 -7z m-3950 -513 l0 -510
-172 2 -173 3 -3 508 -2 507 175 0 175 0 0 -510z m1074 423 c-13 -49 -111
-394 -217 -768 l-192 -680 -298 -3 c-209 -2 -297 1 -297 9 0 9 413 1483 425
1517 3 9 73 12 304 12 l299 0 -24 -87z m-3634 -1108 l0 -355 -154 0 -154 0 -7
30 -7 30 -128 0 -129 0 -3 -27 -3 -28 -140 0 -140 0 -3 353 -2 352 435 0 435
0 0 -355z m-1380 180 c0 -35 -19 -320 -26 -382 l-5 -53 -70 0 c-59 0 -69 3
-69 18 0 33 32 417 36 430 2 8 25 12 69 12 63 0 65 -1 65 -25z m464 -92 c3
-65 9 -160 13 -210 l6 -93 -71 0 -71 0 -5 53 c-3 28 -8 123 -12 210 l-6 157
70 0 69 0 7 -117z m7246 -238 l0 -185 -70 0 -70 0 0 185 0 185 70 0 70 0 0
-185z m220 0 l0 -185 -75 0 -75 0 0 185 0 185 75 0 75 0 0 -185z"/>
<path d="M1580 5340 c-26 -50 -26 -50 10 -50 29 0 30 2 30 45 0 56 -13 57 -40
5z"/>
<path d="M3238 5268 c-2 -13 -2 -45 0 -73 l4 -50 86 2 87 1 3 71 3 71 -90 0
c-85 0 -90 -1 -93 -22z"/>
<path d="M3780 5215 l0 -75 95 0 95 0 0 75 0 75 -95 0 -95 0 0 -75z"/>
<path d="M2110 4775 l0 -75 120 0 120 0 0 75 0 75 -120 0 -120 0 0 -75z"/>
</g>
</svg>
